<?xml version="1.0" encoding="utf-8"?><svg xmlns="http://www.w3.org/2000/svg" width="150" height="35" preserveAspectRatio="xMidYMid" xmlns:xlink="http://www.w3.org/1999/xlink" style="margin-right:-2px;display:block;background-repeat-y:initial;background-repeat-x:initial;animation-play-state:paused" ><style type="text/css" style="animation-play-state:paused" >text {
    text-anchor: middle; font-size: 40px; opacity: 0;
  }</style>


<g style="transform-origin:75px 17.5px;transform:matrix(0.5, 0, 0, 0.5, 0, 0);animation-play-state:paused" ><g transform="translate(75,17.5)" style="transform:matrix(1, 0, 0, 1, 75, 17.5);animation-play-state:paused" ><g transform="translate(-8,7)" style="transform:matrix(1, 0, 0, 1, -8, 7);animation-play-state:paused" ><g class="path" style="transform-origin:-114.16px -6.7224px;animation-timing-function:linear;animation-play-state:paused;animation-name:static-a9dfa4f0-95e8-4cb4-a336-1cff4296c64c;animation-iteration-count:infinite;animation-fill-mode:forwards;animation-duration:1s;animation-delay:-0.5s" ><path d="M7.19-56.02L15.20-56.02L15.20-31.84L41.91-56.02L53.20-56.02L22.89-28.55L54.41 0L43.13 0L15.20-25.20L15.20 0L7.19 0L7.19-56.02" fill="#ff6666" stroke="none" stroke-width="none" transform="translate(-144.95999145507812,21.287601623535156)" style="transform:matrix(1, 0, 0, 1, -144.96, 21.2876);fill:rgb(255, 102, 102);animation-play-state:paused" ></path></g>
<g class="path" style="transform-origin:-68.225px 0.487602px;animation-timing-function:linear;animation-play-state:paused;animation-name:static-a9dfa4f0-95e8-4cb4-a336-1cff4296c64c;animation-iteration-count:infinite;animation-fill-mode:forwards;animation-duration:1s;animation-delay:-0.4s" ><path d="M80.74 0L72.73 0L56.09-41.60L64.10-41.60L76.72-9.22L89.38-41.60L97.38-41.60L80.74 0" fill="#ff6666" stroke="none" stroke-width="none" transform="translate(-144.95999145507812,21.287601623535156)" style="transform:matrix(1, 0, 0, 1, -144.96, 21.2876);fill:rgb(255, 102, 153);animation-play-state:paused" ></path></g>
<g class="path" style="transform-origin:-10.45px 0.487602px;animation-timing-function:linear;animation-play-state:paused;animation-name:static-a9dfa4f0-95e8-4cb4-a336-1cff4296c64c;animation-iteration-count:infinite;animation-fill-mode:forwards;animation-duration:1s;animation-delay:-0.3s" ><path d="M155.94-33.91L138.36-33.91L138.36 0L130.66 0L130.66-33.91L113.05-33.91L113.05 0L105.39 0L105.39-41.60L113.05-41.60L113.05-34.26L113.05-34.26Q113.13-35.78 113.75-37.13L113.75-37.13L113.75-37.13Q114.38-38.48 115.41-39.47L115.41-39.47L115.41-39.47Q116.45-40.47 117.81-41.04L117.81-41.04L117.81-41.04Q119.18-41.60 120.74-41.60L120.74-41.60L130.66-41.60L130.66-41.60Q132.19-41.60 133.55-41.04L133.55-41.04L133.55-41.04Q134.92-40.47 135.98-39.47L135.98-39.47L135.98-39.47Q137.03-38.48 137.68-37.13L137.68-37.13L137.68-37.13Q138.32-35.78 138.36-34.26L138.36-34.26L138.36-34.26Q138.44-35.78 139.04-37.13L139.04-37.13L139.04-37.13Q139.65-38.48 140.68-39.47L140.68-39.47L140.68-39.47Q141.72-40.47 143.09-41.04L143.09-41.04L143.09-41.04Q144.45-41.60 146.02-41.60L146.02-41.60L155.94-41.60L155.94-41.60Q157.54-41.60 158.95-41.00L158.95-41.00L158.95-41.00Q160.35-40.39 161.39-39.36L161.39-39.36L161.39-39.36Q162.42-38.32 163.03-36.91L163.03-36.91L163.03-36.91Q163.63-35.51 163.63-33.91L163.63-33.91L163.63 0L155.94 0L155.94-33.91" fill="#ff6666" stroke="none" stroke-width="none" transform="translate(-144.95999145507812,21.287601623535156)" style="transform:matrix(1, 0, 0, 1, -144.96, 21.2876);fill:rgb(255, 102, 204);animation-play-state:paused" ></path></g>
<g class="path" style="transform-origin:37.33px 15.4476px;animation-timing-function:linear;animation-play-state:paused;animation-name:static-a9dfa4f0-95e8-4cb4-a336-1cff4296c64c;animation-iteration-count:infinite;animation-fill-mode:forwards;animation-duration:1s;animation-delay:-0.2s" ><path d="M176.45 0L176.45-11.68L188.13-11.68L188.13 0L176.45 0" fill="#ff6666" stroke="none" stroke-width="none" transform="translate(-144.95999145507812,21.287601623535156)" style="transform:matrix(1, 0, 0, 1, -144.96, 21.2876);fill:rgb(255, 102, 255);animation-play-state:paused" ></path></g>
<g class="path" style="transform-origin:79.965px -6.7224px;animation-timing-function:linear;animation-play-state:paused;animation-name:static-a9dfa4f0-95e8-4cb4-a336-1cff4296c64c;animation-iteration-count:infinite;animation-fill-mode:forwards;animation-duration:1s;animation-delay:-0.1s" ><path d="M201.72-8.01L201.72-48.01L201.72-48.01Q201.72-49.65 202.34-51.11L202.34-51.11L202.34-51.11Q202.97-52.58 204.06-53.65L204.06-53.65L204.06-53.65Q205.16-54.73 206.62-55.37L206.62-55.37L206.62-55.37Q208.09-56.02 209.73-56.02L209.73-56.02L240.12-56.02L240.12-56.02Q241.76-56.02 243.22-55.37L243.22-55.37L243.22-55.37Q244.69-54.73 245.78-53.65L245.78-53.65L245.78-53.65Q246.88-52.58 247.50-51.11L247.50-51.11L247.50-51.11Q248.13-49.65 248.13-48.01L248.13-48.01L248.13-40.78L240.12-40.78L240.12-48.01L209.73-48.01L209.73-8.01L240.12-8.01L240.12-15.20L248.13-15.20L248.13-8.01L248.13-8.01Q248.13-6.37 247.50-4.90L247.50-4.90L247.50-4.90Q246.88-3.44 245.78-2.34L245.78-2.34L245.78-2.34Q244.69-1.25 243.22-0.63L243.22-0.63L243.22-0.63Q241.76 0 240.12 0L240.12 0L209.73 0L209.73 0Q208.09 0 206.62-0.63L206.62-0.63L206.62-0.63Q205.16-1.25 204.06-2.34L204.06-2.34L204.06-2.34Q202.97-3.44 202.34-4.90L202.34-4.90L202.34-4.90Q201.72-6.37 201.72-8.01L201.72-8.01" fill="#ff6666" stroke="none" stroke-width="none" transform="translate(-144.95999145507812,21.287601623535156)" style="transform:matrix(1, 0, 0, 1, -144.96, 21.2876);fill:rgb(153, 102, 255);animation-play-state:paused" ></path></g>
<g class="path" style="transform-origin:131.66px 0.487602px;animation-timing-function:linear;animation-play-state:paused;animation-name:static-a9dfa4f0-95e8-4cb4-a336-1cff4296c64c;animation-iteration-count:infinite;animation-fill-mode:forwards;animation-duration:1s" ><path d="M287.11-41.60L296.41-41.60L281.29-21.29L297.11 0L287.81 0L276.64-15.04L265.43 0L256.13 0L271.99-21.29L256.88-41.60L266.13-41.60L276.64-27.54L287.11-41.60" fill="#ff6666" stroke="none" stroke-width="none" transform="translate(-144.95999145507812,21.287601623535156)" style="transform:matrix(1, 0, 0, 1, -144.96, 21.2876);fill:rgb(255, 102, 102);animation-play-state:paused" ></path></g></g></g></g></svg>