<?xml version="1.0" encoding="utf-8"?><svg xmlns="http://www.w3.org/2000/svg" width="326" height="121" preserveAspectRatio="xMidYMid" xmlns:xlink="http://www.w3.org/1999/xlink" style="margin-right:-2px;display:block;background-repeat-y:initial;background-repeat-x:initial;animation-play-state:paused" ><style type="text/css" style="animation-play-state:paused" >text {
    text-anchor: middle; font-size: 90px; opacity: 0;
  }</style>


<g style="transform-origin:163px 60.5px;transform:matrix(1, 0, 0, 1, 0, 0);animation-play-state:paused" ><g transform="translate(163,60.5)" style="transform:matrix(1, 0, 0, 1, 163, 60.5);animation-play-state:paused" ><g transform="translate(-7,0)" style="transform:matrix(1, 0, 0, 1, -7, 0);animation-play-state:paused" ><g class="path" style="transform-origin:-128.425px -7.5624px;animation-timing-function:linear;animation-play-state:paused;animation-name:static-06877e86-1c45-4655-9df9-a343a1ff0af4;animation-iteration-count:infinite;animation-fill-mode:forwards;animation-duration:1s;animation-delay:-0.5s" ><path d="M8.09-63.02L17.09-63.02L17.09-35.82L47.15-63.02L59.85-63.02L25.75-32.12L61.22 0L48.52 0L17.09-28.34L17.09 0L8.09 0L8.09-63.02" fill="#ff6666" stroke="none" stroke-width="none" transform="translate(-163.08001708984375,23.947601623535157)" style="transform:matrix(1, 0, 0, 1, -163.08, 23.9476);fill:rgb(255, 102, 102);animation-play-state:paused" ></path></g>
<g class="path" style="transform-origin:-76.745px 0.547602px;animation-timing-function:linear;animation-play-state:paused;animation-name:static-06877e86-1c45-4655-9df9-a343a1ff0af4;animation-iteration-count:infinite;animation-fill-mode:forwards;animation-duration:1s;animation-delay:-0.4s" ><path d="M90.83 0L81.83 0L63.11-46.80L72.11-46.80L86.31-10.37L100.55-46.80L109.56-46.80L90.83 0" fill="#ff6666" stroke="none" stroke-width="none" transform="translate(-163.08001708984375,23.947601623535157)" style="transform:matrix(1, 0, 0, 1, -163.08, 23.9476);fill:rgb(255, 102, 153);animation-play-state:paused" ></path></g>
<g class="path" style="transform-origin:-11.755px 0.547602px;animation-timing-function:linear;animation-play-state:paused;animation-name:static-06877e86-1c45-4655-9df9-a343a1ff0af4;animation-iteration-count:infinite;animation-fill-mode:forwards;animation-duration:1s;animation-delay:-0.3s" ><path d="M175.43-38.14L155.65-38.14L155.65 0L147.00 0L147.00-38.14L127.18-38.14L127.18 0L118.56 0L118.56-46.80L127.18-46.80L127.18-38.54L127.18-38.54Q127.27-40.25 127.97-41.77L127.97-41.77L127.97-41.77Q128.67-43.29 129.84-44.41L129.84-44.41L129.84-44.41Q131.00-45.53 132.54-46.16L132.54-46.16L132.54-46.16Q134.08-46.80 135.83-46.80L135.83-46.80L147.00-46.80L147.00-46.80Q148.71-46.80 150.25-46.16L150.25-46.16L150.25-46.16Q151.79-45.53 152.97-44.41L152.97-44.41L152.97-44.41Q154.16-43.29 154.89-41.77L154.89-41.77L154.89-41.77Q155.61-40.25 155.65-38.54L155.65-38.54L155.65-38.54Q155.74-40.25 156.42-41.77L156.42-41.77L156.42-41.77Q157.10-43.29 158.27-44.41L158.27-44.41L158.27-44.41Q159.43-45.53 160.97-46.16L160.97-46.16L160.97-46.16Q162.51-46.80 164.27-46.80L164.27-46.80L175.43-46.80L175.43-46.80Q177.23-46.80 178.81-46.12L178.81-46.12L178.81-46.12Q180.40-45.44 181.56-44.27L181.56-44.27L181.56-44.27Q182.72-43.11 183.41-41.53L183.41-41.53L183.41-41.53Q184.09-39.95 184.09-38.14L184.09-38.14L184.09 0L175.43 0L175.43-38.14" fill="#ff6666" stroke="none" stroke-width="none" transform="translate(-163.08001708984375,23.947601623535157)" style="transform:matrix(1, 0, 0, 1, -163.08, 23.9476);fill:rgb(255, 102, 204);animation-play-state:paused" ></path></g>
<g class="path" style="transform-origin:41.99px 17.3776px;animation-timing-function:linear;animation-play-state:paused;animation-name:static-06877e86-1c45-4655-9df9-a343a1ff0af4;animation-iteration-count:infinite;animation-fill-mode:forwards;animation-duration:1s;animation-delay:-0.2s" ><path d="M198.50 0L198.50-13.14L211.64-13.14L211.64 0L198.50 0" fill="#ff6666" stroke="none" stroke-width="none" transform="translate(-163.08001708984375,23.947601623535157)" style="transform:matrix(1, 0, 0, 1, -163.08, 23.9476);fill:rgb(255, 102, 255);animation-play-state:paused" ></path></g>
<g class="path" style="transform-origin:89.955px -7.5624px;animation-timing-function:linear;animation-play-state:paused;animation-name:static-06877e86-1c45-4655-9df9-a343a1ff0af4;animation-iteration-count:infinite;animation-fill-mode:forwards;animation-duration:1s;animation-delay:-0.1s" ><path d="M226.93-9.01L226.93-54.01L226.93-54.01Q226.93-55.85 227.64-57.50L227.64-57.50L227.64-57.50Q228.34-59.15 229.57-60.36L229.57-60.36L229.57-60.36Q230.80-61.57 232.45-62.29L232.45-62.29L232.45-62.29Q234.10-63.02 235.94-63.02L235.94-63.02L270.13-63.02L270.13-63.02Q271.98-63.02 273.63-62.29L273.63-62.29L273.63-62.29Q275.27-61.57 276.50-60.36L276.50-60.36L276.50-60.36Q277.73-59.15 278.44-57.50L278.44-57.50L278.44-57.50Q279.14-55.85 279.14-54.01L279.14-54.01L279.14-45.88L270.13-45.88L270.13-54.01L235.94-54.01L235.94-9.01L270.13-9.01L270.13-17.09L279.14-17.09L279.14-9.01L279.14-9.01Q279.14-7.16 278.44-5.52L278.44-5.52L278.44-5.52Q277.73-3.87 276.50-2.64L276.50-2.64L276.50-2.64Q275.27-1.41 273.63-0.70L273.63-0.70L273.63-0.70Q271.98 0 270.13 0L270.13 0L235.94 0L235.94 0Q234.10 0 232.45-0.70L232.45-0.70L232.45-0.70Q230.80-1.41 229.57-2.64L229.57-2.64L229.57-2.64Q228.34-3.87 227.64-5.52L227.64-5.52L227.64-5.52Q226.93-7.16 226.93-9.01L226.93-9.01" fill="#ff6666" stroke="none" stroke-width="none" transform="translate(-163.08001708984375,23.947601623535157)" style="transform:matrix(1, 0, 0, 1, -163.08, 23.9476);fill:rgb(153, 102, 255);animation-play-state:paused" ></path></g>
<g class="path" style="transform-origin:148.12px 0.547602px;animation-timing-function:linear;animation-play-state:paused;animation-name:static-06877e86-1c45-4655-9df9-a343a1ff0af4;animation-iteration-count:infinite;animation-fill-mode:forwards;animation-duration:1s" ><path d="M323.00-46.80L333.46-46.80L316.45-23.95L334.25 0L323.79 0L311.22-16.92L298.61 0L288.15 0L305.99-23.95L288.98-46.80L299.40-46.80L311.22-30.98L323.00-46.80" fill="#ff6666" stroke="none" stroke-width="none" transform="translate(-163.08001708984375,23.947601623535157)" style="transform:matrix(1, 0, 0, 1, -163.08, 23.9476);fill:rgb(255, 102, 102);animation-play-state:paused" ></path></g></g></g></g></svg>