<?xml version="1.0" encoding="utf-8"?><svg xmlns="http://www.w3.org/2000/svg" width="300" height="70" preserveAspectRatio="xMidYMid" xmlns:xlink="http://www.w3.org/1999/xlink" style="margin-right:-2px;display:block;background-repeat-y:initial;background-repeat-x:initial;animation-play-state:paused" ><style type="text/css" style="animation-play-state:paused" >text {
    text-anchor: middle; font-size: 80px; opacity: 0;
  }</style>


<g style="transform-origin:150px 35px;transform:matrix(0.8, 0, 0, 0.8, 0, 0);animation-play-state:paused" ><g transform="translate(150,35)" style="transform:matrix(1, 0, 0, 1, 150, 35);animation-play-state:paused" ><g transform="translate(-8,7)" style="transform:matrix(1, 0, 0, 1, -8, 7);animation-play-state:paused" ><g class="path" style="transform-origin:-142.705px -8.4024px;animation-timing-function:linear;animation-play-state:paused;animation-name:static-18043204-12a6-4fe0-bbde-9f26921865d6;animation-iteration-count:infinite;animation-fill-mode:forwards;animation-duration:1s;animation-delay:-0.5s" ><path d="M8.98-70.02L18.99-70.02L18.99-39.79L52.39-70.02L66.50-70.02L28.61-35.69L68.02 0L53.91 0L18.99-31.49L18.99 0L8.98 0L8.98-70.02" fill="#ff6666" stroke="none" stroke-width="none" transform="translate(-181.20501708984375,26.60759582519531)" style="transform:matrix(1, 0, 0, 1, -181.205, 26.6076);fill:rgb(255, 102, 102);animation-play-state:paused" ></path></g>
<g class="path" style="transform-origin:-85.28px 0.607595px;animation-timing-function:linear;animation-play-state:paused;animation-name:static-18043204-12a6-4fe0-bbde-9f26921865d6;animation-iteration-count:infinite;animation-fill-mode:forwards;animation-duration:1s;animation-delay:-0.4s" ><path d="M100.93 0L90.92 0L70.12-52.00L80.13-52.00L95.90-11.52L111.72-52.00L121.73-52.00L100.93 0" fill="#ff6666" stroke="none" stroke-width="none" transform="translate(-181.20501708984375,26.60759582519531)" style="transform:matrix(1, 0, 0, 1, -181.205, 26.6076);fill:rgb(255, 102, 153);animation-play-state:paused" ></path></g>
<g class="path" style="transform-origin:-13.065px 0.607595px;animation-timing-function:linear;animation-play-state:paused;animation-name:static-18043204-12a6-4fe0-bbde-9f26921865d6;animation-iteration-count:infinite;animation-fill-mode:forwards;animation-duration:1s;animation-delay:-0.3s" ><path d="M194.92-42.38L172.95-42.38L172.95 0L163.33 0L163.33-42.38L141.31-42.38L141.31 0L131.74 0L131.74-52.00L141.31-52.00L141.31-42.82L141.31-42.82Q141.41-44.73 142.19-46.41L142.19-46.41L142.19-46.41Q142.97-48.10 144.26-49.34L144.26-49.34L144.26-49.34Q145.56-50.59 147.27-51.29L147.27-51.29L147.27-51.29Q148.97-52.00 150.93-52.00L150.93-52.00L163.33-52.00L163.33-52.00Q165.23-52.00 166.94-51.29L166.94-51.29L166.94-51.29Q168.65-50.59 169.97-49.34L169.97-49.34L169.97-49.34Q171.29-48.10 172.09-46.41L172.09-46.41L172.09-46.41Q172.90-44.73 172.95-42.82L172.95-42.82L172.95-42.82Q173.05-44.73 173.80-46.41L173.80-46.41L173.80-46.41Q174.56-48.10 175.85-49.34L175.85-49.34L175.85-49.34Q177.15-50.59 178.86-51.29L178.86-51.29L178.86-51.29Q180.57-52.00 182.52-52.00L182.52-52.00L194.92-52.00L194.92-52.00Q196.92-52.00 198.68-51.25L198.68-51.25L198.68-51.25Q200.44-50.49 201.73-49.19L201.73-49.19L201.73-49.19Q203.03-47.90 203.78-46.14L203.78-46.14L203.78-46.14Q204.54-44.38 204.54-42.38L204.54-42.38L204.54 0L194.92 0L194.92-42.38" fill="#ff6666" stroke="none" stroke-width="none" transform="translate(-181.20501708984375,26.60759582519531)" style="transform:matrix(1, 0, 0, 1, -181.205, 26.6076);fill:rgb(255, 102, 204);animation-play-state:paused" ></path></g>
<g class="path" style="transform-origin:46.655px 19.3076px;animation-timing-function:linear;animation-play-state:paused;animation-name:static-18043204-12a6-4fe0-bbde-9f26921865d6;animation-iteration-count:infinite;animation-fill-mode:forwards;animation-duration:1s;animation-delay:-0.2s" ><path d="M220.56 0L220.56-14.60L235.16-14.60L235.16 0L220.56 0" fill="#ff6666" stroke="none" stroke-width="none" transform="translate(-181.20501708984375,26.60759582519531)" style="transform:matrix(1, 0, 0, 1, -181.205, 26.6076);fill:rgb(255, 102, 255);animation-play-state:paused" ></path></g>
<g class="path" style="transform-origin:99.95px -8.4024px;animation-timing-function:linear;animation-play-state:paused;animation-name:static-18043204-12a6-4fe0-bbde-9f26921865d6;animation-iteration-count:infinite;animation-fill-mode:forwards;animation-duration:1s;animation-delay:-0.1s" ><path d="M252.15-10.01L252.15-60.01L252.15-60.01Q252.15-62.06 252.93-63.89L252.93-63.89L252.93-63.89Q253.71-65.72 255.08-67.07L255.08-67.07L255.08-67.07Q256.45-68.41 258.28-69.21L258.28-69.21L258.28-69.21Q260.11-70.02 262.16-70.02L262.16-70.02L300.15-70.02L300.15-70.02Q302.20-70.02 304.03-69.21L304.03-69.21L304.03-69.21Q305.86-68.41 307.23-67.07L307.23-67.07L307.23-67.07Q308.59-65.72 309.38-63.89L309.38-63.89L309.38-63.89Q310.16-62.06 310.16-60.01L310.16-60.01L310.16-50.98L300.15-50.98L300.15-60.01L262.16-60.01L262.16-10.01L300.15-10.01L300.15-18.99L310.16-18.99L310.16-10.01L310.16-10.01Q310.16-7.96 309.38-6.13L309.38-6.13L309.38-6.13Q308.59-4.30 307.23-2.93L307.23-2.93L307.23-2.93Q305.86-1.56 304.03-0.78L304.03-0.78L304.03-0.78Q302.20 0 300.15 0L300.15 0L262.16 0L262.16 0Q260.11 0 258.28-0.78L258.28-0.78L258.28-0.78Q256.45-1.56 255.08-2.93L255.08-2.93L255.08-2.93Q253.71-4.30 252.93-6.13L252.93-6.13L252.93-6.13Q252.15-7.96 252.15-10.01L252.15-10.01" fill="#ff6666" stroke="none" stroke-width="none" transform="translate(-181.20501708984375,26.60759582519531)" style="transform:matrix(1, 0, 0, 1, -181.205, 26.6076);fill:rgb(153, 102, 255);animation-play-state:paused" ></path></g>
<g class="path" style="transform-origin:164.575px 0.607595px;animation-timing-function:linear;animation-play-state:paused;animation-name:static-18043204-12a6-4fe0-bbde-9f26921865d6;animation-iteration-count:infinite;animation-fill-mode:forwards;animation-duration:1s" ><path d="M358.89-52.00L370.51-52.00L351.61-26.61L371.39 0L359.77 0L345.80-18.80L331.79 0L320.17 0L339.99-26.61L321.09-52.00L332.67-52.00L345.80-34.42L358.89-52.00" fill="#ff6666" stroke="none" stroke-width="none" transform="translate(-181.20501708984375,26.60759582519531)" style="transform:matrix(1, 0, 0, 1, -181.205, 26.6076);fill:rgb(255, 102, 102);animation-play-state:paused" ></path></g></g></g></g></svg>